<svg width="48" height="48" viewBox="0 0 48 48" fill="none" xmlns="http://www.w3.org/2000/svg">
<g id="Frame">
<g id="Group">
<path id="Vector" d="M42.518 35.232C41.9047 35.5531 41.2722 35.836 40.624 36.079C38.5614 36.8509 36.3763 37.2439 34.174 37.239C25.674 37.239 18.265 31.391 18.265 23.886C18.276 22.8794 18.5553 21.894 19.0743 21.0314C19.5932 20.1688 20.3329 19.4603 21.217 18.979C13.527 19.302 11.551 27.316 11.551 32.011C11.551 45.285 23.785 46.631 26.421 46.631C28.0665 46.5675 29.6969 46.2923 31.272 45.812L31.507 45.733C36.4575 44.0211 40.6779 40.6754 43.474 36.246C43.5597 36.1111 43.598 35.9514 43.5828 35.7923C43.5676 35.6332 43.4998 35.4837 43.3902 35.3674C43.2805 35.2511 43.1353 35.1746 42.9773 35.1501C42.8194 35.1256 42.6578 35.1544 42.518 35.232Z" fill="url(#paint0_linear_1_19512)"/>
<path id="Vector_2" opacity="0.35" d="M42.518 35.232C41.9047 35.5531 41.2722 35.836 40.624 36.079C38.5614 36.8509 36.3763 37.2439 34.174 37.239C25.674 37.239 18.265 31.391 18.265 23.886C18.276 22.8794 18.5553 21.894 19.0743 21.0314C19.5932 20.1688 20.3329 19.4603 21.217 18.979C13.527 19.302 11.551 27.316 11.551 32.011C11.551 45.285 23.785 46.631 26.421 46.631C28.0665 46.5675 29.6969 46.2923 31.272 45.812L31.507 45.733C36.4575 44.0211 40.6779 40.6754 43.474 36.246C43.5597 36.1111 43.598 35.9514 43.5828 35.7923C43.5676 35.6332 43.4998 35.4837 43.3902 35.3674C43.2805 35.2511 43.1353 35.1746 42.9773 35.1501C42.8194 35.1256 42.6578 35.1544 42.518 35.232Z" fill="url(#paint1_radial_1_19512)"/>
<path id="Vector_3" d="M19.9999 44.3741C18.3974 43.3793 17.0085 42.0761 15.9139 40.5401C14.667 38.831 13.8091 36.8699 13.4002 34.7942C12.9913 32.7185 13.0414 30.5785 13.547 28.5242C14.0525 26.4699 15.0013 24.5511 16.3267 22.9022C17.6522 21.2533 19.3223 19.9143 21.2199 18.9791C22.0785 18.5165 23.0367 18.2697 24.0119 18.2601C24.9093 18.2674 25.7928 18.4825 26.5931 18.8885C27.3935 19.2945 28.0889 19.8803 28.6249 20.6001C29.3509 21.5688 29.751 22.7427 29.7679 23.9531C29.7679 23.9151 34.1629 9.65308 15.3939 9.65308C7.5059 9.64608 1.0199 17.1321 1.0199 23.7001C0.990145 27.1741 1.73486 30.611 3.1999 33.7611C5.59228 38.8652 9.77578 42.913 14.956 45.1359C20.1361 47.3588 25.9523 47.6019 31.2999 45.8191C29.4276 46.4094 27.4496 46.5866 25.5022 46.3385C23.5548 46.0904 21.6844 45.4229 20.0199 44.3821L19.9999 44.3741Z" fill="url(#paint2_linear_1_19512)"/>
<path id="Vector_4" opacity="0.41" d="M19.9999 44.3741C18.3974 43.3793 17.0085 42.0761 15.9139 40.5401C14.667 38.831 13.8091 36.8699 13.4002 34.7942C12.9913 32.7185 13.0414 30.5785 13.547 28.5242C14.0525 26.4699 15.0013 24.5511 16.3267 22.9022C17.6522 21.2533 19.3223 19.9143 21.2199 18.9791C22.0785 18.5165 23.0367 18.2697 24.0119 18.2601C24.9093 18.2674 25.7928 18.4825 26.5931 18.8885C27.3935 19.2945 28.0889 19.8803 28.6249 20.6001C29.3509 21.5688 29.751 22.7427 29.7679 23.9531C29.7679 23.9151 34.1629 9.65308 15.3939 9.65308C7.5059 9.64608 1.0199 17.1321 1.0199 23.7001C0.990145 27.1741 1.73486 30.611 3.1999 33.7611C5.59228 38.8652 9.77578 42.913 14.956 45.1359C20.1361 47.3588 25.9523 47.6019 31.2999 45.8191C29.4276 46.4094 27.4496 46.5866 25.5022 46.3385C23.5548 46.0904 21.6844 45.4229 20.0199 44.3821L19.9999 44.3741Z" fill="url(#paint3_radial_1_19512)"/>
<path id="Vector_5" d="M28.37 27.743C28.225 27.932 27.777 28.193 27.777 28.76C27.8031 29.029 27.8938 29.2877 28.0414 29.5141C28.1891 29.7404 28.3893 29.9277 28.625 30.06C31.209 31.86 36.08 31.619 36.093 31.619C38.0072 31.6144 39.8851 31.0964 41.531 30.119C43.1918 29.1496 44.5702 27.7627 45.5296 26.0961C46.4889 24.4295 46.9958 22.541 47 20.618C47.0182 17.8555 46.3158 15.1361 44.962 12.728C41.154 5.28 32.936 1 24 1C17.9564 0.999386 12.1555 3.37752 7.85142 7.62017C3.54739 11.8628 1.08619 17.629 1 23.672C1.086 17.107 7.612 11.8 15.374 11.8C17.9939 11.8268 20.5739 12.4455 22.921 13.61C25.2505 14.7677 27.1808 16.5952 28.464 18.858C29.3168 20.4949 29.7653 22.3123 29.772 24.158C29.6779 25.4673 29.1891 26.7172 28.37 27.743Z" fill="url(#paint4_radial_1_19512)"/>
<path id="Vector_6" d="M28.37 27.743C28.225 27.932 27.777 28.193 27.777 28.76C27.8031 29.029 27.8938 29.2877 28.0414 29.5141C28.1891 29.7404 28.3893 29.9277 28.625 30.06C31.209 31.86 36.08 31.619 36.093 31.619C38.0072 31.6144 39.8851 31.0964 41.531 30.119C43.1918 29.1496 44.5702 27.7627 45.5296 26.0961C46.4889 24.4295 46.9958 22.541 47 20.618C47.0182 17.8555 46.3158 15.1361 44.962 12.728C41.154 5.28 32.936 1 24 1C17.9564 0.999386 12.1555 3.37752 7.85142 7.62017C3.54739 11.8628 1.08619 17.629 1 23.672C1.086 17.107 7.612 11.8 15.374 11.8C17.9939 11.8268 20.5739 12.4455 22.921 13.61C25.2505 14.7677 27.1808 16.5952 28.464 18.858C29.3168 20.4949 29.7653 22.3123 29.772 24.158C29.6779 25.4673 29.1891 26.7172 28.37 27.743Z" fill="url(#paint5_radial_1_19512)"/>
</g>
</g>
<defs>
<linearGradient id="paint0_linear_1_19512" x1="11.551" y1="32.805" x2="43.586" y2="32.805" gradientUnits="userSpaceOnUse">
<stop stop-color="#0C59A4"/>
<stop offset="1" stop-color="#114A8B"/>
</linearGradient>
<radialGradient id="paint1_radial_1_19512" cx="0" cy="0" r="1" gradientUnits="userSpaceOnUse" gradientTransform="translate(29.249 33.0607) scale(17.138 16.2811)">
<stop offset="0.72" stop-opacity="0"/>
<stop offset="0.95" stop-opacity="0.53"/>
<stop offset="1"/>
</radialGradient>
<linearGradient id="paint2_linear_1_19512" x1="28.4539" y1="18.9181" x2="8.4399" y2="40.7191" gradientUnits="userSpaceOnUse">
<stop stop-color="#1B9DE2"/>
<stop offset="0.16" stop-color="#1595DF"/>
<stop offset="0.67" stop-color="#0680D7"/>
<stop offset="1" stop-color="#0078D4"/>
</linearGradient>
<radialGradient id="paint3_radial_1_19512" cx="0" cy="0" r="1" gradientUnits="userSpaceOnUse" gradientTransform="translate(13.6844 36.7544) rotate(-81.3844) scale(25.7704 20.8199)">
<stop offset="0.76" stop-opacity="0"/>
<stop offset="0.95" stop-opacity="0.5"/>
<stop offset="1"/>
</radialGradient>
<radialGradient id="paint4_radial_1_19512" cx="0" cy="0" r="1" gradientUnits="userSpaceOnUse" gradientTransform="translate(5.64774 9.50984) rotate(92.2906) scale(36.4011 77.5268)">
<stop stop-color="#35C1F1"/>
<stop offset="0.11" stop-color="#34C1ED"/>
<stop offset="0.23" stop-color="#2FC2DF"/>
<stop offset="0.31" stop-color="#2BC3D2"/>
<stop offset="0.67" stop-color="#36C752"/>
</radialGradient>
<radialGradient id="paint5_radial_1_19512" cx="0" cy="0" r="1" gradientUnits="userSpaceOnUse" gradientTransform="translate(44.1355 14.9044) rotate(73.7398) scale(17.49 14.2229)">
<stop stop-color="#66EB6E"/>
<stop offset="1" stop-color="#66EB6E" stop-opacity="0"/>
</radialGradient>
</defs>
</svg>
