<svg width="48" height="48" viewBox="0 0 48 48" fill="none" xmlns="http://www.w3.org/2000/svg">
<path d="M44.6549 16.4281C43.6859 14.0981 41.7239 11.5821 40.1839 10.7871C41.2809 12.9116 42.0419 15.1934 42.4399 17.5511L42.4449 17.5881C39.9249 11.3071 35.6509 8.77407 32.1619 3.25907C31.9849 2.98007 31.8089 2.70007 31.6359 2.40507C31.5486 2.25507 31.4669 2.1014 31.3909 1.94407C31.246 1.66438 31.1342 1.36871 31.0579 1.06307C31.0591 1.04804 31.0544 1.03314 31.0449 1.02143C31.0354 1.00971 31.0218 1.00207 31.0069 1.00007C30.9932 0.99607 30.9786 0.99607 30.9649 1.00007L30.9539 1.00607L30.9379 1.01507L30.9469 1.00307C28.7938 2.32812 26.9793 4.13686 25.6473 6.2857C24.3154 8.43454 23.5027 10.8643 23.2739 13.3821C21.0383 13.5363 18.9008 14.3601 17.1399 15.7461C16.9557 15.5903 16.763 15.4448 16.5629 15.3101C16.0548 13.5338 16.0331 11.6536 16.4999 9.86607C14.4438 10.8622 12.6167 12.2739 11.1339 14.0121H11.1239C10.2409 12.8931 10.3029 9.20107 10.3529 8.43007C10.0917 8.53528 9.84236 8.66767 9.6089 8.82507C8.82916 9.38146 8.1003 10.0059 7.4309 10.6911C6.6685 11.4647 5.97239 12.301 5.3499 13.1911C3.91715 15.2207 2.9009 17.5143 2.3599 19.9391C2.3489 19.9871 2.3399 20.0391 2.3299 20.0861C2.2879 20.2861 2.1369 21.2641 2.1109 21.4771L2.1059 21.5261C1.91091 22.5406 1.78992 23.568 1.7439 24.6001C1.7439 24.6381 1.7439 24.6751 1.7439 24.7141C1.74757 30.2955 3.84508 35.6725 7.62182 39.7821C11.3986 43.8917 16.5797 46.4349 22.1409 46.9089C27.7022 47.3829 33.239 45.7532 37.6567 42.342C42.0745 38.9309 45.0517 33.9864 45.9999 28.4861C46.0379 28.2011 46.0679 27.9141 46.0999 27.6261C46.5604 23.8313 46.0636 19.9816 44.6549 16.4281ZM18.9659 33.8721C19.0659 33.9221 19.1659 33.9721 19.2749 34.0241L19.2899 34.0331C19.1809 33.9811 19.0729 33.9271 18.9659 33.8721ZM42.4469 17.5941V17.5721V17.5961V17.5941Z" fill="url(#paint0_linear_1_19496)"/>
<path d="M44.6549 16.4281C43.6859 14.0981 41.7239 11.5821 40.1839 10.7871C41.2809 12.9117 42.0419 15.1934 42.4399 17.5511C42.4399 17.5511 42.4399 17.5561 42.4399 17.5721V17.5961C44.1577 22.5116 43.909 27.9007 41.7459 32.6371C39.1919 38.1181 33.0079 43.7371 23.3299 43.4611C12.8719 43.1611 3.6599 35.4061 1.9399 25.2441C1.74981 24.0063 1.80348 22.7433 2.0979 21.5261C1.88492 22.5376 1.76641 23.5667 1.7439 24.6001C1.7439 24.6381 1.7439 24.6761 1.7439 24.7141C1.74757 30.2956 3.84508 35.6725 7.62182 39.7822C11.3986 43.8918 16.5797 46.4349 22.1409 46.9089C27.7022 47.3829 33.239 45.7533 37.6567 42.3421C42.0745 38.9309 45.0517 33.9864 45.9999 28.4861C46.0379 28.2011 46.0679 27.9141 46.0999 27.6261C46.5604 23.8313 46.0636 19.9817 44.6549 16.4281Z" fill="url(#paint1_radial_1_19496)"/>
<path d="M44.6549 16.4281C43.6859 14.0981 41.7239 11.5821 40.1839 10.7871C41.2809 12.9117 42.0419 15.1934 42.4399 17.5511C42.4399 17.5511 42.4399 17.5561 42.4399 17.5721V17.5961C44.1577 22.5116 43.909 27.9007 41.7459 32.6371C39.1919 38.1181 33.0079 43.7371 23.3299 43.4611C12.8719 43.1611 3.6599 35.4061 1.9399 25.2441C1.74981 24.0063 1.80348 22.7433 2.0979 21.5261C1.88492 22.5376 1.76641 23.5667 1.7439 24.6001C1.7439 24.6381 1.7439 24.6761 1.7439 24.7141C1.74757 30.2956 3.84508 35.6725 7.62182 39.7822C11.3986 43.8918 16.5797 46.4349 22.1409 46.9089C27.7022 47.3829 33.239 45.7533 37.6567 42.3421C42.0745 38.9309 45.0517 33.9864 45.9999 28.4861C46.0379 28.2011 46.0679 27.9141 46.0999 27.6261C46.5604 23.8313 46.0636 19.9817 44.6549 16.4281Z" fill="url(#paint2_radial_1_19496)"/>
<path d="M33.8239 19.048C33.8719 19.082 33.9159 19.116 33.9619 19.148C33.4028 18.1551 32.7063 17.2461 31.8929 16.448C24.9649 9.52 30.0759 1.427 30.9379 1.016L30.9479 1C28.7946 2.32509 26.98 4.13397 25.648 6.28301C24.3161 8.43204 23.5035 10.862 23.2749 13.38C23.5349 13.362 23.7929 13.34 24.0579 13.34C26.044 13.3433 27.9939 13.8724 29.7092 14.8736C31.4246 15.8747 32.8443 17.3123 33.8239 19.04V19.048Z" fill="url(#paint3_radial_1_19496)"/>
<path d="M24.0719 20.431C24.0349 20.985 22.0769 22.897 21.3919 22.897C15.0539 22.897 14.0249 26.73 14.0249 26.73C14.2223 28.2872 14.8061 29.7702 15.723 31.0442C16.6399 32.3181 17.861 33.3425 19.2749 34.024C19.3989 34.088 19.5249 34.146 19.6509 34.203C19.8659 34.303 20.0849 34.388 20.3049 34.471C21.2381 34.8017 22.2157 34.9901 23.2049 35.03C34.3139 35.551 36.4659 21.75 28.4499 17.743C30.3405 17.4951 32.2557 17.9584 33.8239 19.043C32.8442 17.3154 31.4245 15.8779 29.7092 14.8767C27.9938 13.8756 26.044 13.3464 24.0579 13.343C23.7939 13.343 23.5349 13.365 23.2749 13.383C21.039 13.5362 18.9013 14.36 17.1409 15.747C17.4809 16.034 17.8639 16.418 18.6719 17.214C20.1839 18.705 24.0639 20.248 24.0719 20.429V20.431Z" fill="url(#paint4_radial_1_19496)"/>
<path d="M24.0719 20.431C24.0349 20.985 22.0769 22.897 21.3919 22.897C15.0539 22.897 14.0249 26.73 14.0249 26.73C14.2223 28.2872 14.8061 29.7702 15.723 31.0442C16.6399 32.3181 17.861 33.3425 19.2749 34.024C19.3989 34.088 19.5249 34.146 19.6509 34.203C19.8659 34.303 20.0849 34.388 20.3049 34.471C21.2381 34.8017 22.2157 34.9901 23.2049 35.03C34.3139 35.551 36.4659 21.75 28.4499 17.743C30.3405 17.4951 32.2557 17.9584 33.8239 19.043C32.8442 17.3154 31.4245 15.8779 29.7092 14.8767C27.9938 13.8756 26.044 13.3464 24.0579 13.343C23.7939 13.343 23.5349 13.365 23.2749 13.383C21.039 13.5362 18.9013 14.36 17.1409 15.747C17.4809 16.034 17.8639 16.418 18.6719 17.214C20.1839 18.705 24.0639 20.248 24.0719 20.429V20.431Z" fill="url(#paint5_radial_1_19496)"/>
<path d="M16.1 15.007C16.2553 15.107 16.4093 15.209 16.562 15.313C16.0542 13.5356 16.0328 11.6545 16.5 9.86597C14.4441 10.8619 12.6172 12.2736 11.135 14.012C11.242 14.012 14.475 13.951 16.1 15.007Z" fill="url(#paint6_radial_1_19496)"/>
<path d="M1.9478 25.2441C3.6678 35.4061 12.8798 43.1651 23.3378 43.4611C33.0158 43.7351 39.1998 38.1181 41.7538 32.6371C43.9159 27.9019 44.1645 22.5143 42.4478 17.6001V17.5781C42.4478 17.5621 42.4478 17.5521 42.4478 17.5571L42.4528 17.5941C43.2428 22.7571 40.6168 27.7581 36.5128 31.1391L36.4998 31.1681C28.4998 37.6811 20.8478 35.0971 19.2998 34.0401C19.1908 33.9871 19.0828 33.9341 18.9758 33.8781C14.3118 31.6501 12.3858 27.4011 12.7988 23.7581C11.6918 23.7746 10.6038 23.4696 9.66659 22.8801C8.72942 22.2907 7.98335 21.442 7.5188 20.4371C8.74067 19.6883 10.1337 19.2643 11.5655 19.2053C12.9973 19.1463 14.4205 19.4543 15.6998 20.1001C18.3395 21.2984 21.3432 21.4165 24.0688 20.4291C24.0598 20.2481 20.1808 18.7051 18.6688 17.2151C17.8608 16.4151 17.4768 16.0351 17.1368 15.7471C16.9526 15.5913 16.7599 15.4458 16.5598 15.3111C16.4071 15.2071 16.2531 15.1051 16.0978 15.0051C14.4718 13.9481 11.2388 14.0051 11.1318 14.0051H11.1218C10.2388 12.8861 10.3008 9.19407 10.3508 8.42407C10.0896 8.52887 9.84025 8.66093 9.6068 8.81807C8.8281 9.37683 8.10027 10.0033 7.4318 10.6901C6.66967 11.464 5.97358 12.3002 5.3508 13.1901C3.91757 15.22 2.90098 17.5138 2.3598 19.9391C2.3488 19.9871 1.5598 23.4481 1.9478 25.2441Z" fill="url(#paint7_radial_1_19496)"/>
<path d="M31.8928 16.4501C32.7059 17.2484 33.4025 18.1573 33.9618 19.1501C34.0848 19.2431 34.1988 19.3351 34.2968 19.4241C39.3488 24.0801 36.7018 30.6651 36.5048 31.1341C40.6048 27.7521 43.2348 22.7521 42.4448 17.5891C39.9248 11.3081 35.6508 8.77507 32.1618 3.26007C31.9848 2.98107 31.8088 2.70107 31.6358 2.40607C31.5485 2.25607 31.4668 2.1024 31.3908 1.94507C31.2458 1.66538 31.1341 1.36971 31.0578 1.06407C31.0592 1.04888 31.0547 1.03372 31.0452 1.02179C31.0357 1.00986 31.0219 1.00207 31.0068 1.00007C30.9931 0.99607 30.9785 0.99607 30.9648 1.00007L30.9538 1.00607L30.9378 1.01507C30.0758 1.42607 24.9648 9.51507 31.8928 16.4471V16.4501Z" fill="url(#paint8_radial_1_19496)"/>
<path d="M34.2998 19.423C34.1998 19.334 34.0878 19.242 33.9648 19.149C33.9198 19.115 33.8748 19.081 33.8268 19.049C32.2582 17.9653 30.3433 17.502 28.4528 17.749C36.4688 21.757 34.3168 35.558 23.2078 35.037C22.2186 34.9962 21.2411 34.8075 20.3078 34.477C20.0878 34.394 19.8688 34.305 19.6538 34.21C19.5278 34.152 19.4018 34.094 19.2778 34.03L19.2928 34.04C20.8428 35.097 28.4928 37.68 36.4928 31.168L36.5058 31.139C36.7058 30.67 39.3498 24.085 34.2978 19.429L34.2998 19.423Z" fill="url(#paint9_radial_1_19496)"/>
<path d="M14.0248 26.7312C14.0248 26.7312 15.0538 22.9002 21.3908 22.9002C22.0768 22.9002 24.0348 20.9882 24.0718 20.4342C24.1088 19.8802 20.0188 22.1342 15.7028 20.1052C14.4225 19.4559 12.9973 19.1452 11.563 19.2028C10.1286 19.2604 8.73289 19.6843 7.50879 20.4342C7.97334 21.4391 8.71942 22.2878 9.65658 22.8772C10.5938 23.4667 11.6818 23.7716 12.7888 23.7552C12.3758 27.3982 14.3018 31.6472 18.9658 33.8752C19.0658 33.9252 19.1658 33.9752 19.2748 34.0272C17.8604 33.3457 16.6391 32.3211 15.7221 31.0467C14.8051 29.7723 14.2216 28.2888 14.0248 26.7312Z" fill="url(#paint10_radial_1_19496)"/>
<path d="M44.6549 16.4281C43.6859 14.0981 41.7239 11.5821 40.1839 10.7871C41.2809 12.9116 42.0419 15.1934 42.4399 17.5511L42.4449 17.5881C39.9249 11.3071 35.6509 8.77407 32.1619 3.25907C31.9849 2.98007 31.8089 2.70007 31.6359 2.40507C31.5486 2.25507 31.4669 2.1014 31.3909 1.94407C31.246 1.66438 31.1342 1.36871 31.0579 1.06307C31.0591 1.04804 31.0544 1.03314 31.0449 1.02143C31.0354 1.00971 31.0218 1.00207 31.0069 1.00007C30.9932 0.99607 30.9786 0.99607 30.9649 1.00007L30.9539 1.00607L30.9379 1.01507L30.9469 1.00307C28.7938 2.32812 26.9793 4.13686 25.6473 6.2857C24.3154 8.43454 23.5027 10.8643 23.2739 13.3821C23.5339 13.3641 23.7929 13.3421 24.0569 13.3421C26.0431 13.3452 27.993 13.8743 29.7083 14.8755C31.4237 15.8767 32.8433 17.3143 33.8229 19.0421C32.2543 17.9584 30.3394 17.4951 28.4489 17.7421C36.4659 21.7501 34.3139 35.5511 23.2049 35.0301C22.2157 34.9898 21.2382 34.8014 20.3049 34.4711C20.0839 34.3881 19.8659 34.2981 19.6499 34.2031C19.5239 34.1461 19.3989 34.0881 19.2749 34.0231L19.2899 34.0331C19.1809 33.9801 19.0729 33.9261 18.9649 33.8711C19.0649 33.9211 19.1659 33.9711 19.2749 34.0231C17.8611 33.3416 16.6391 32.3174 15.7222 31.0437C14.8053 29.7699 14.2215 28.2871 14.0239 26.7301C14.0239 26.7301 15.0529 22.9001 21.3909 22.9001C22.0759 22.9001 24.0349 20.9881 24.0709 20.4341C24.0629 20.2531 20.1829 18.7101 18.6709 17.2201C17.8629 16.4201 17.4799 16.0401 17.1399 15.7521C16.9553 15.5963 16.7624 15.4508 16.5619 15.3161C16.0536 13.5377 16.0321 11.6555 16.4999 9.86607C14.4435 10.8613 12.6166 12.2732 11.1349 14.0121H11.1239C10.2409 12.8921 10.3029 9.20107 10.3539 8.43007C10.0923 8.53503 9.84257 8.66744 9.6089 8.82507C8.82916 9.38146 8.1003 10.0059 7.4309 10.6911C6.66911 11.465 5.97335 12.3012 5.3509 13.1911C3.91779 15.2207 2.9012 17.5142 2.3599 19.9391C2.3489 19.9871 2.3399 20.0391 2.3299 20.0861C2.2879 20.2861 2.0989 21.2781 2.0729 21.4921C1.90088 22.5205 1.79102 23.5584 1.7439 24.6001C1.7439 24.6381 1.7439 24.6761 1.7439 24.7141C1.74757 30.2955 3.84508 35.6725 7.62182 39.7821C11.3986 43.8917 16.5797 46.4349 22.1409 46.9089C27.7022 47.3829 33.239 45.7532 37.6567 42.342C42.0745 38.9309 45.0517 33.9864 45.9999 28.4861C46.0379 28.2011 46.0679 27.9141 46.0999 27.6261C46.5604 23.8313 46.0636 19.9816 44.6549 16.4281Z" fill="url(#paint11_linear_1_19496)"/>
<defs>
<linearGradient id="paint0_linear_1_19496" x1="40.5109" y1="8.23465" x2="4.33872" y2="42.7608" gradientUnits="userSpaceOnUse">
<stop offset="0.05" stop-color="#FFF44F"/>
<stop offset="0.37" stop-color="#FF980E"/>
<stop offset="0.53" stop-color="#FF3647"/>
<stop offset="0.7" stop-color="#E31587"/>
</linearGradient>
<radialGradient id="paint1_radial_1_19496" cx="0" cy="0" r="1" gradientUnits="userSpaceOnUse" gradientTransform="translate(40.8362 10.9483) scale(45.6961 46.4657)">
<stop offset="0.13" stop-color="#FFBD4F"/>
<stop offset="0.28" stop-color="#FF980E"/>
<stop offset="0.47" stop-color="#FF3750"/>
<stop offset="0.78" stop-color="#EB0878"/>
<stop offset="0.86" stop-color="#E50080"/>
</radialGradient>
<radialGradient id="paint2_radial_1_19496" cx="0" cy="0" r="1" gradientUnits="userSpaceOnUse" gradientTransform="translate(23.8653 25.395) scale(46.8385 46.4657)">
<stop offset="0.3" stop-color="#960E18"/>
<stop offset="0.35" stop-color="#B11927" stop-opacity="0.74"/>
<stop offset="0.43" stop-color="#DB293D" stop-opacity="0.34"/>
<stop offset="0.5" stop-color="#F5334B" stop-opacity="0.09"/>
<stop offset="0.53" stop-color="#FF3750" stop-opacity="0"/>
</radialGradient>
<radialGradient id="paint3_radial_1_19496" cx="0" cy="0" r="1" gradientUnits="userSpaceOnUse" gradientTransform="translate(28.3771 -1.12012) scale(14.9807 25.4335)">
<stop offset="0.13" stop-color="#FFF44F"/>
<stop offset="0.53" stop-color="#FF980E"/>
</radialGradient>
<radialGradient id="paint4_radial_1_19496" cx="0" cy="0" r="1" gradientUnits="userSpaceOnUse" gradientTransform="translate(18.4294 37.1666) scale(19.8539 21.7601)">
<stop offset="0.35" stop-color="#3A8EE6"/>
<stop offset="0.67" stop-color="#9059FF"/>
<stop offset="1" stop-color="#C139E6"/>
</radialGradient>
<radialGradient id="paint5_radial_1_19496" cx="0" cy="0" r="1" gradientUnits="userSpaceOnUse" gradientTransform="translate(23.0554 20.554) scale(10.5674 12.8689)">
<stop offset="0.21" stop-color="#9059FF" stop-opacity="0"/>
<stop offset="0.97" stop-color="#6E008B" stop-opacity="0.6"/>
</radialGradient>
<radialGradient id="paint6_radial_1_19496" cx="0" cy="0" r="1" gradientUnits="userSpaceOnUse" gradientTransform="translate(22.5564 4.4204) scale(15.743 15.7989)">
<stop offset="0.1" stop-color="#FFE226"/>
<stop offset="0.79" stop-color="#FF7139"/>
</radialGradient>
<radialGradient id="paint7_radial_1_19496" cx="0" cy="0" r="1" gradientUnits="userSpaceOnUse" gradientTransform="translate(36.5329 -5.97309) scale(75.1759 63.106)">
<stop offset="0.11" stop-color="#FFF44F"/>
<stop offset="0.46" stop-color="#FF980E"/>
<stop offset="0.72" stop-color="#FF3647"/>
<stop offset="0.9" stop-color="#E31587"/>
</radialGradient>
<radialGradient id="paint8_radial_1_19496" cx="0" cy="0" r="1" gradientUnits="userSpaceOnUse" gradientTransform="translate(30.7341 -4.68858) rotate(83.9546) scale(49.3287 49.6978)">
<stop stop-color="#FFF44F"/>
<stop offset="0.3" stop-color="#FF980E"/>
<stop offset="0.57" stop-color="#FF3647"/>
<stop offset="0.74" stop-color="#E31587"/>
</radialGradient>
<radialGradient id="paint9_radial_1_19496" cx="0" cy="0" r="1" gradientUnits="userSpaceOnUse" gradientTransform="translate(22.5048 10.0513) scale(43.1264 42.3688)">
<stop offset="0.14" stop-color="#FFF44F"/>
<stop offset="0.48" stop-color="#FF980E"/>
<stop offset="0.66" stop-color="#FF3647"/>
<stop offset="0.9" stop-color="#E31587"/>
</radialGradient>
<radialGradient id="paint10_radial_1_19496" cx="0" cy="0" r="1" gradientUnits="userSpaceOnUse" gradientTransform="translate(33.7135 12.6034) scale(51.7923 46.3342)">
<stop offset="0.09" stop-color="#FFF44F"/>
<stop offset="0.63" stop-color="#FF980E"/>
</radialGradient>
<linearGradient id="paint11_linear_1_19496" x1="38.1109" y1="8.23465" x2="9.73268" y2="39.5519" gradientUnits="userSpaceOnUse">
<stop offset="0.17" stop-color="#FFF44F" stop-opacity="0.8"/>
<stop offset="0.6" stop-color="#FFF44F" stop-opacity="0"/>
</linearGradient>
</defs>
</svg>
