<svg width="48" height="48" viewBox="0 0 48 48" fill="none" xmlns="http://www.w3.org/2000/svg">
<path d="M1 24C1 36.682 11.318 47 24 47C36.682 47 47 36.682 47 24C47 11.318 36.682 1 24 1C11.318 1 1 11.318 1 24Z" fill="white"/>
<path d="M14.0769 22.812C14.6669 17.857 18.8889 14 23.9999 14H44.7089C40.9829 6.313 33.1009 1 23.9999 1C16.8869 1 10.5179 4.247 6.2959 9.335L14.0769 22.812Z" fill="#E86C60"/>
<path d="M24 32C28.4183 32 32 28.4183 32 24C32 19.5817 28.4183 16 24 16C19.5817 16 16 19.5817 16 24C16 28.4183 19.5817 32 24 32Z" fill="#43A6DD"/>
<path d="M27.93 33.193C26.722 33.711 25.395 34 24 34C20.306 34 17.081 31.981 15.35 28.994L15.34 29L4.989 11.071C2.474 14.758 1 19.21 1 24C1 35.37 9.294 44.833 20.148 46.671L27.93 33.193Z" fill="#72C472"/>
<path d="M29.9741 16C32.4121 17.825 34.0001 20.727 34.0001 24C34.0001 25.82 33.5031 27.523 32.6501 28.994L32.6601 29L22.3081 46.931C22.8671 46.972 23.4301 47 24.0001 47C36.6831 47 47.0001 36.683 47.0001 24C47.0001 21.188 46.4911 18.493 45.5631 16H29.9741Z" fill="#EFD358"/>
</svg>
