<svg width="64" height="18" viewBox="0 0 64 18" fill="none" xmlns="http://www.w3.org/2000/svg">
<path id="Ronin" d="M3.54722 17.8V13.3986H6.80978L9.76579 17.8H13.5758L10.138 12.7214C11.1453 12.27 11.9226 11.6192 12.47 10.769C13.0174 9.91881 13.2911 8.90686 13.2911 7.73314C13.2911 6.55943 13.021 5.54371 12.4809 4.686C11.9408 3.82829 11.1708 3.16619 10.1709 2.69971C9.17093 2.23324 7.99218 2 6.6346 2H0V17.8H3.54722ZM6.60015 10.6H3.68485V5H6.60015C7.67499 5 8.49215 5.24098 9.05165 5.72295C9.61116 6.20492 9.89091 6.89727 9.89091 7.8C9.89091 8.68743 9.61116 9.37596 9.05165 9.86557C8.49215 10.3552 7.67499 10.6 6.60015 10.6ZM21.6352 18C22.8811 18 23.9951 17.7309 24.9772 17.1926C25.9592 16.6543 26.7287 15.9076 27.2857 14.9523C27.8427 13.9971 28.1212 12.913 28.1212 11.7C28.1212 10.487 27.8427 9.40289 27.2857 8.44765C26.7287 7.49242 25.9592 6.74567 24.9772 6.2074C23.9951 5.66913 22.8811 5.4 21.6352 5.4C20.3893 5.4 19.2717 5.66913 18.2823 6.2074C17.2929 6.74567 16.5197 7.49242 15.9628 8.44765C15.4058 9.40289 15.1273 10.487 15.1273 11.7C15.1273 12.913 15.4058 13.9971 15.9628 14.9523C16.5197 15.9076 17.2929 16.6543 18.2823 17.1926C19.2717 17.7309 20.3893 18 21.6352 18ZM21.6352 15.2C20.7607 15.2 20.0392 14.8919 19.4708 14.2758C18.9024 13.6597 18.6182 12.8345 18.6182 11.8C18.6182 10.7655 18.9024 9.94027 19.4708 9.32416C20.0392 8.70805 20.7607 8.4 21.6352 8.4C22.5097 8.4 23.2275 8.70805 23.7886 9.32416C24.3497 9.94027 24.6303 10.7655 24.6303 11.8C24.6303 12.8345 24.3497 13.6597 23.7886 14.2758C23.2275 14.8919 22.5097 15.2 21.6352 15.2ZM33.6651 17.8V11.759C33.6651 10.6689 33.9201 9.8475 34.4302 9.29487C34.9404 8.74225 35.6254 8.46593 36.4853 8.46593C37.2578 8.46593 37.848 8.7044 38.2561 9.18132C38.6642 9.65824 38.8683 10.3812 38.8683 11.3502V17.8H42.2788V10.8051C42.2788 9.01856 41.8306 7.67106 40.9343 6.76264C40.0379 5.85421 38.861 5.4 37.4035 5.4C36.6019 5.4 35.8659 5.54005 35.1954 5.82015C34.525 6.10024 33.9638 6.49768 33.512 7.01245V5.58169H30.2545V17.8H33.6651ZM47.1273 4C47.7577 4 48.2709 3.8046 48.6668 3.41379C49.0627 3.02299 49.2606 2.52874 49.2606 1.93103C49.2606 1.37931 49.0627 0.91954 48.6668 0.551724C48.2709 0.183908 47.7577 0 47.1273 0C46.4968 0 45.9836 0.191571 45.5878 0.574712C45.1919 0.957854 44.9939 1.43295 44.9939 2C44.9939 2.56705 45.1919 3.04215 45.5878 3.42529C45.9836 3.80843 46.4968 4 47.1273 4ZM48.8727 17.8V5.6H45.3818V17.8H48.8727ZM55.3863 17.8V11.759C55.3863 10.6689 55.6413 9.8475 56.1515 9.29487C56.6616 8.74225 57.3466 8.46593 58.2065 8.46593C58.979 8.46593 59.5693 8.7044 59.9773 9.18132C60.3854 9.65824 60.5895 10.3812 60.5895 11.3502V17.8H64V10.8051C64 9.01856 63.5518 7.67106 62.6555 6.76264C61.7591 5.85421 60.5822 5.4 59.1247 5.4C58.3231 5.4 57.5871 5.54005 56.9166 5.82015C56.2462 6.10024 55.6851 6.49768 55.2332 7.01245V5.58169H51.9758V17.8H55.3863Z" fill="#FDFEFF"/>
</svg>
